<svg width="119" height="64" viewBox="0 0 119 64" fill="none" xmlns="http://www.w3.org/2000/svg">
<path d="M68.2719 17.9935L80.0957 17.9545L71.9078 2.55632C71.9078 2.55632 70.5604 0.457927 67.88 0.4375C67.8639 0.4375 67.8478 0.4375 67.8317 0.4375C65.1871 0.4375 64.1457 2.13107 64.1457 2.13107L59.7512 8.4504L55.6841 2.22763C54.5156 0.578628 52.6744 0.4375 52.084 0.4375C51.9641 0.4375 51.8943 0.443071 51.8943 0.443071C49.1602 0.443071 47.8326 2.26663 47.8326 2.26663L39.0059 17.9229H51.2662C52.1699 19.1522 52.9124 20.1568 52.9285 20.1791L52.9321 20.1754L56.5286 25.4177C57.7096 26.855 59.2985 26.907 59.5239 26.907C59.5418 26.907 59.5508 26.907 59.5508 26.907C61.9288 26.907 63.0614 25.4938 63.0614 25.4938L68.016 18.3574C68.016 18.3574 68.1109 18.22 68.2719 17.9935ZM69.2578 16.5877C69.9091 15.6611 70.6803 14.5636 71.2207 13.7967C72.076 12.5822 73.1514 12.6472 73.1854 12.6509L75.7333 12.6546L77.8089 16.5599L69.2578 16.5877ZM65.2408 2.95L65.2497 2.94629L65.2784 2.89615C65.3732 2.76616 66.1086 1.83767 67.8335 1.83767H67.8729C69.6175 1.85067 70.5909 3.06514 70.768 3.30469L71.8147 5.2731H71.1545C70.8557 5.25638 69.2363 5.24895 68.0089 6.98895C66.9138 8.54511 63.4551 13.221 63.4121 13.2786L59.6098 18.5988L59.574 18.6527C59.5651 18.6675 58.683 20.1383 57.3106 20.1383H54.5693L53.0198 17.8783C54.9272 17.7688 56.0634 16.0343 56.2334 15.7595L59.7154 10.8868L59.719 10.8942L60.848 9.26933L65.2408 2.95ZM51.9122 16.4893C50.9567 15.1875 49.9243 13.7744 49.4107 13.0446C48.185 11.3046 46.5639 11.3102 46.2651 11.3287H44.2879L46.4816 7.43649H49.6577L49.7167 7.43463C49.7614 7.43277 50.835 7.36406 51.6903 8.57853C52.5206 9.75772 54.6874 12.701 55.727 14.1105L55.1276 14.9499L55.0918 15.0037C55.0829 15.0186 54.2007 16.4893 52.8283 16.4893H51.9122ZM48.9419 3.07628C49.1513 2.83487 50.1175 1.84509 51.8943 1.84509L51.9372 1.84695L51.9927 1.84138C52.0052 1.84138 52.0374 1.83952 52.084 1.83952C52.4687 1.83952 53.7802 1.9268 54.5818 3.03728L58.6329 9.23591L58.9084 9.65744L56.5644 12.9369C55.4658 11.4457 53.5476 8.83665 52.7818 7.75032C51.5561 6.01032 49.935 6.01589 49.6362 6.03446H47.2725L48.9419 3.07628ZM41.3624 16.5209L43.4988 12.7308H46.2884L46.3474 12.7289C46.3922 12.727 47.4657 12.6583 48.321 13.8728C48.7326 14.4578 49.4716 15.4735 50.2392 16.5227H41.3624V16.5209ZM62.0111 24.608C61.8536 24.7715 61.061 25.5068 59.5508 25.5068L59.5472 25.505L59.5132 25.5068C59.3933 25.505 58.3662 25.4604 57.5897 24.5505L55.5266 21.544H57.307C59.3289 21.544 60.5331 19.7 60.7067 19.4141L64.4857 14.1254C64.5197 14.0789 67.9892 9.38818 69.095 7.81902C69.9503 6.60455 71.0239 6.66955 71.0597 6.67326L72.5537 6.67512L74.9872 11.2526H73.273C72.976 11.2359 71.3531 11.2284 70.1274 12.9684C69.4099 13.9861 67.524 16.5933 67.524 16.5933L67.1214 17.1782L62.0111 24.608Z" fill="white"/>
<path d="M46.8235 62.1137C46.8248 61.881 46.8274 61.6495 46.8274 61.4167C46.8274 61.184 46.8248 60.9525 46.8248 60.7197C46.8261 60.9525 46.8274 61.184 46.8274 61.4167C46.8261 61.6495 46.8235 61.881 46.8235 62.1137Z" fill="white"/>
<path d="M3.18206 53.0536C3.18617 50.7729 3.17108 48.4935 3.20263 46.2127C3.21635 45.2399 3.50164 44.3235 4.02148 43.4812C4.59481 42.5514 5.40817 41.9607 6.48763 41.7427C7.33253 41.5718 8.15824 41.6324 8.89754 42.1208C9.76165 42.6913 10.1457 43.5525 10.3514 44.5133C10.5503 45.439 10.5407 46.3769 10.5393 47.3161C10.5352 49.2887 10.538 51.2613 10.5393 53.2339C10.5393 53.5555 10.549 53.5649 10.8781 53.5663C11.3925 53.569 11.9082 53.5676 12.4226 53.5676C12.8478 53.5663 12.8478 53.5663 12.8491 53.1478C12.8505 50.9626 12.8409 48.7774 12.8574 46.5908C12.8642 45.6449 13.0466 44.7299 13.4842 43.8701C14.0465 42.764 14.8832 41.9943 16.1424 41.7387C16.7568 41.6135 17.3727 41.6256 17.9693 41.8517C19.02 42.2486 19.5055 43.095 19.7963 44.084C20.0254 44.8644 20.0487 45.6704 20.0487 46.4764C20.0487 48.7088 20.0487 50.9424 20.0501 53.1747C20.0501 53.5367 20.0816 53.5663 20.4478 53.5663C20.8662 53.5676 21.2845 53.573 21.7028 53.5649C22.4092 53.5501 22.3914 53.721 22.3928 52.8975C22.3955 50.6249 22.3941 48.3535 22.3928 46.0808C22.3914 45.1726 22.364 44.267 22.1651 43.3749C21.9676 42.4949 21.6343 41.6714 21.0308 40.9784C20.2613 40.0957 19.2449 39.6813 18.09 39.5938C16.104 39.4431 14.3963 40.0311 13.059 41.5207C12.8217 41.7844 12.6187 42.0764 12.3567 42.4088C12.247 42.2433 12.1345 42.106 12.0577 41.9513C11.5173 40.8654 10.6601 40.1428 9.48733 39.7809C8.59167 39.505 7.67955 39.4943 6.77018 39.6907C6.05969 39.8441 5.37251 40.0971 4.8129 40.564C4.33283 40.965 3.90901 41.4292 3.45912 41.8638C3.41797 41.9042 3.35214 41.9674 3.31785 41.9567C3.27121 41.9419 3.22458 41.8719 3.21086 41.8181C3.18754 41.7279 3.18754 41.631 3.1848 41.5368C3.17794 41.2771 3.1944 41.0148 3.16697 40.7564C3.12308 40.3352 2.91048 40.0096 2.49626 39.8495C2.05871 39.6813 1.63214 39.6746 1.26318 40.0204C1.12191 40.1522 0.980631 40.2841 0.839355 40.416C0.839355 44.8039 0.839355 49.1918 0.839355 53.5784C1.44972 53.573 2.06146 53.5663 2.67182 53.5636C3.18206 53.5636 3.18206 53.5649 3.18206 53.0536Z" fill="white"/>
<path d="M115.692 40.0325C115.552 40.4092 115.393 40.7806 115.243 41.1547C114.917 41.9688 114.596 42.7828 114.265 43.5956C113.81 44.7151 113.348 45.8319 112.887 46.9487C112.807 47.1398 112.793 47.3215 112.881 47.5193C113.125 48.0683 113.353 48.6226 113.59 49.1743C113.707 49.4448 113.828 49.7139 113.972 50.0422C114.075 49.8821 114.153 49.7906 114.197 49.6856C114.494 48.9711 114.785 48.2539 115.077 47.5368C115.413 46.7106 115.744 45.8817 116.083 45.0555C116.412 44.2522 116.751 43.4516 117.082 42.6496C117.428 41.81 117.768 40.969 118.118 40.1307C118.141 40.0755 118.215 40.0392 118.265 39.9948C118.265 39.9154 118.265 39.8374 118.265 39.758C117.557 39.7486 116.851 39.7405 116.143 39.727C115.911 39.719 115.771 39.8145 115.692 40.0325Z" fill="white"/>
<path d="M2.92724 62.0855C2.93684 61.4087 2.9245 60.7319 2.93273 60.055C2.93547 59.8519 2.85729 59.7725 2.65155 59.7725C2.44307 59.7725 2.34842 59.8397 2.35117 60.0618C2.36214 60.6915 2.36214 61.3212 2.35117 61.9509C2.34157 62.5363 1.91911 62.7866 1.39241 62.5269C1.22919 62.4461 1.09752 62.4152 1.00151 62.6184C0.978189 62.6668 0.89315 62.687 0.836914 62.7193C0.836914 62.7502 0.836914 62.7825 0.836914 62.8135C1.04403 62.9023 1.24565 63.0059 1.45825 63.0785C2.1948 63.3288 2.91627 62.8417 2.92724 62.0855Z" fill="white"/>
<path d="M83.5071 42.2931C83.1765 41.7737 82.7363 41.3378 82.2315 40.957C81.6966 40.5533 81.1274 40.2223 80.5005 39.9935C79.2976 39.5535 78.0605 39.4661 76.7972 39.6733C76.1882 39.7729 75.6094 39.9747 75.0786 40.2694C74.4284 40.6313 73.8345 41.0754 73.3847 41.6796C73.3106 41.7791 73.2228 41.8679 73.0884 42.024C73.0418 41.8464 72.9896 41.7266 72.9828 41.6055C72.9663 41.3216 72.9869 41.0364 72.9663 40.7538C72.9348 40.3205 72.6879 39.9909 72.2997 39.8375C71.8786 39.672 71.4411 39.6814 71.0584 40.0151C70.7388 40.295 70.6606 40.6367 70.6606 41.0337C70.6648 45.1135 70.6634 49.1933 70.6634 53.273C70.6634 55.1353 70.6634 56.9976 70.6634 58.8599C70.6634 59.164 70.6799 59.1801 70.9926 59.1815C71.5398 59.1842 72.0871 59.1842 72.633 59.1815C72.9485 59.1801 72.9773 59.1492 72.9773 58.8424C72.9787 57.3663 72.9773 55.8915 72.9773 54.4154C72.9773 53.5637 72.9732 52.7106 72.9814 51.8588C72.9828 51.7068 73.0349 51.5547 73.0637 51.3987C73.1419 51.4215 73.1611 51.4215 73.1707 51.4309C73.1981 51.4592 73.2214 51.4915 73.2461 51.5211C73.9923 52.4495 74.914 53.1264 76.084 53.4587C77.1058 53.7494 78.1373 53.8032 79.1865 53.6417C80.576 53.4278 81.8049 52.8842 82.8172 51.9221C83.5908 51.1874 84.1257 50.3047 84.4755 49.2969C84.758 48.4841 84.8677 47.6526 84.8787 46.8102C84.8911 45.8441 84.7786 44.8807 84.4041 43.9805C84.1627 43.3965 83.85 42.8314 83.5071 42.2931ZM82.525 47.0497C82.4386 48.4868 81.8982 49.7463 80.72 50.6478C79.4485 51.6207 77.9905 51.8467 76.4337 51.4767C75.235 51.1914 74.3146 50.4958 73.6439 49.5068C73.0788 48.6739 72.8799 47.7131 72.8648 46.6757C72.895 45.7257 73.0952 44.7744 73.6233 43.9159C74.4202 42.6201 75.5888 41.8733 77.1291 41.6944C78.0906 41.5827 79.0124 41.7374 79.8696 42.1599C80.6034 42.5219 81.2001 43.0615 81.6541 43.7437C82.3248 44.7515 82.5964 45.867 82.525 47.0497Z" fill="white"/>
<path d="M101.701 40.8028C101.642 40.1919 101.187 39.7681 100.576 39.7479C99.9604 39.7277 99.4612 40.1193 99.3843 40.7248C99.3418 41.0598 99.3706 41.4029 99.361 41.7407C99.3583 41.843 99.3336 41.9452 99.3103 42.104C99.1772 41.9533 99.0853 41.8578 99.0044 41.7528C97.9935 40.4449 96.6329 39.7492 94.9842 39.5985C93.7457 39.4855 92.5469 39.6672 91.4153 40.2C90.4195 40.6696 89.5938 41.333 88.9409 42.213C88.3937 42.9517 88.0206 43.7671 87.7874 44.6418C87.5611 45.4922 87.5104 46.3601 87.5488 47.2414C87.6132 48.7014 88.0563 50.0214 88.9396 51.2001C89.635 52.1272 90.5347 52.804 91.6211 53.2117C93.4055 53.8832 95.2009 53.972 96.9923 53.1956C97.8756 52.8134 98.5929 52.247 99.1375 51.4665C99.1772 51.4087 99.254 51.375 99.313 51.3293C99.3555 51.3992 99.4118 51.4652 99.4365 51.5405C99.4584 51.6051 99.4447 51.6818 99.4447 51.7518C99.4461 52.2644 99.4461 52.7771 99.4461 53.2911C99.4461 53.4284 99.4666 53.5548 99.6436 53.5562C100.262 53.5602 100.882 53.5602 101.501 53.5575C101.634 53.5575 101.708 53.4849 101.705 53.3476C101.704 53.2682 101.708 53.1902 101.708 53.1108C101.708 49.1414 101.708 45.1733 101.708 41.2038C101.712 41.0706 101.715 40.936 101.701 40.8028ZM98.5765 49.6782C97.9167 50.6255 96.9936 51.2485 95.836 51.5109C94.784 51.7491 93.7498 51.6724 92.7609 51.2714C91.9256 50.9323 91.2411 50.386 90.7323 49.6285C90.0492 48.6099 89.7996 47.4863 89.8901 46.2968C90.0053 44.8019 90.6116 43.5249 91.846 42.5924C92.7225 41.9304 93.7374 41.6425 94.8416 41.664C96.4381 41.6949 97.6616 42.4242 98.5449 43.6824C99.1786 44.5852 99.4543 45.6227 99.4461 46.8418C99.468 47.7985 99.1868 48.8009 98.5765 49.6782Z" fill="white"/>
<path d="M39.228 50.5309C39.9536 49.3589 40.2923 48.0739 40.3198 46.7001C40.2649 46.1524 40.2498 45.5967 40.1456 45.0571C39.944 44.0251 39.5407 43.0711 38.8933 42.2193C38.3968 41.5654 37.7933 41.0298 37.0938 40.6006C35.8977 39.8673 34.5727 39.5457 33.1737 39.5255C32.1628 39.5107 31.1753 39.6493 30.2206 40.0099C29.554 40.2615 28.9533 40.5992 28.38 41.0164C27.6119 41.5761 27.0413 42.292 26.6037 43.0993C26.1772 43.8865 25.9111 44.7342 25.8082 45.6357C25.6889 46.6691 25.7424 47.6837 26.018 48.6808C26.2594 49.5527 26.6682 50.3479 27.2264 51.0772C27.8052 51.8321 28.5377 52.3932 29.3648 52.8373C30.1095 53.2369 30.9147 53.4683 31.7596 53.5908C32.7663 53.7361 33.7676 53.7173 34.7565 53.5141C35.7784 53.3042 36.7317 52.918 37.5779 52.295C38.2432 51.8079 38.8 51.2226 39.228 50.5309ZM37.8907 46.6355C37.9112 47.6729 37.6424 48.6391 37.0554 49.4975C36.5767 50.1986 35.9485 50.7503 35.157 51.1257C34.1037 51.6249 33.0077 51.7097 31.8899 51.4796C30.8982 51.275 30.0615 50.7718 29.3908 50.0156C28.3827 48.8772 27.9986 47.5303 28.155 46.0623C28.3731 44.0035 29.6487 42.2906 31.7623 41.7739C33.341 41.3877 34.8087 41.6555 36.0925 42.6835C37.091 43.4828 37.6451 44.5243 37.8303 45.7663C37.8468 45.8753 37.8811 45.9829 37.8865 46.0919C37.8975 46.2735 37.8907 46.4552 37.8907 46.6355Z" fill="white"/>
<path d="M63.858 40.6103C62.6346 39.881 61.2849 39.5634 59.8529 39.5459C59.4456 39.5836 59.0368 39.6118 58.6308 39.6616C57.2826 39.8298 56.081 40.3398 55.0331 41.1902C54.324 41.7661 53.7575 42.4645 53.357 43.2718C52.7439 44.507 52.4847 45.823 52.5834 47.1982C52.7069 48.9071 53.3145 50.4235 54.5435 51.6588C55.2265 52.345 56.0166 52.8954 56.9589 53.2089C57.3141 53.3273 57.3402 53.3246 57.4485 52.9599C57.5788 52.5213 57.6995 52.0799 57.8326 51.6413C57.9327 51.3116 57.9108 51.2659 57.5939 51.1111C56.5254 50.5864 55.8012 49.7481 55.3568 48.6756C54.9563 47.7095 54.8603 46.7071 55.0551 45.6804C55.3225 44.2729 56.0111 43.1346 57.2675 42.3649C58.0219 41.902 58.8476 41.6786 59.7364 41.6652C61.0037 41.645 62.1284 42.0191 63.0817 42.8399C63.7661 43.4292 64.2256 44.1706 64.4849 45.0291C64.7907 46.0437 64.8305 47.0677 64.5466 48.0876C64.1241 49.6 63.1777 50.6846 61.6978 51.3008C61.5057 51.3802 61.4975 51.5135 61.5524 51.6655C61.7293 52.1634 61.9172 52.6585 62.0955 53.1551C62.1682 53.3569 62.2917 53.3892 62.4892 53.3206C63.6207 52.9236 64.5973 52.3141 65.3956 51.4179C66.1541 50.5675 66.6698 49.6027 66.914 48.5074C67.3446 46.5765 67.1526 44.721 66.1719 42.9637C65.6151 41.9679 64.8332 41.1915 63.858 40.6103Z" fill="white"/>
<path d="M50.976 52.6547C50.8279 52.1555 50.6756 51.6576 50.5261 51.1584C50.4726 50.9795 50.3876 50.8812 50.1819 50.9996C50.0584 51.071 49.9199 51.1167 49.7868 51.1746C49.1998 51.4302 48.5908 51.5917 47.9434 51.5836C47.0203 51.5715 46.5402 51.005 46.4264 50.2542C46.3619 49.8263 46.3222 49.3917 46.3208 48.9597C46.3112 46.6951 46.3153 44.4319 46.3167 42.1673C46.3167 41.7555 46.3633 41.7098 46.7899 41.7098C48.0682 41.7084 49.3465 41.7098 50.6249 41.7084C50.9184 41.7084 50.9815 41.6506 50.9856 41.364C50.9911 40.9697 50.9884 40.5755 50.987 40.1812C50.987 39.7627 50.9486 39.7264 50.5138 39.7264C49.2519 39.7264 47.9887 39.7277 46.7268 39.7251C46.3866 39.7251 46.318 39.6537 46.3167 39.32C46.3139 38.9177 46.3167 38.5154 46.3153 38.1131C46.3139 37.3959 46.3359 36.676 46.303 35.9601C46.2591 35.0263 45.2317 34.6643 44.5446 35.0747C44.1249 35.325 43.9808 35.7193 43.9808 36.1808C43.9822 37.2142 43.9808 38.2476 43.9795 39.281C43.9795 39.6766 43.9273 39.7251 43.5172 39.7264C43.1716 39.7264 42.8259 39.7251 42.4803 39.7278C42.2704 39.7291 42.1511 39.8179 42.1539 40.044C42.1593 40.4934 42.1525 40.9428 42.1566 41.3922C42.1593 41.6479 42.2252 41.7057 42.494 41.7084C42.8479 41.7111 43.2018 41.7084 43.5556 41.7098C43.9356 41.7111 43.9795 41.7555 43.9808 42.1377C43.9808 43.416 43.9808 44.6929 43.9808 45.9712C43.9808 46.5081 43.9795 47.0436 43.9795 47.5805C43.9795 48.1174 43.9795 48.653 43.9822 49.1898C43.9863 49.9555 44.022 50.7198 44.2565 51.4598C44.5775 52.469 45.1796 53.2468 46.2481 53.5334C47.8268 53.9572 49.352 53.7365 50.8114 53.0261C50.9774 52.9453 51.024 52.8202 50.976 52.6547Z" fill="white"/>
<path d="M112.265 52.0054C111.907 51.1712 111.552 50.3342 111.188 49.5013C110.747 48.4881 110.297 47.4776 109.854 46.4644C109.335 45.2776 108.819 44.0881 108.302 42.9013C107.89 41.9526 107.464 41.0094 107.068 40.0527C106.968 39.8118 106.828 39.7217 106.584 39.7257C106.286 39.7298 105.988 39.7271 105.691 39.7271C105.691 39.7271 105.691 39.7271 105.691 39.7284C105.362 39.7284 105.031 39.723 104.702 39.7297C104.471 39.7351 104.418 39.8253 104.509 40.0352C104.603 40.2518 104.703 40.4671 104.799 40.6838C105.222 41.6284 105.637 42.5756 106.065 43.5189C106.519 44.5187 106.988 45.513 107.442 46.5128C108.018 47.7857 108.585 49.064 109.157 50.3396C109.519 51.147 109.888 51.9516 110.239 52.763C110.295 52.8922 110.32 53.0617 110.284 53.1936C110.21 53.4667 110.091 53.7278 109.983 53.9902C109.663 54.7719 109.337 55.5524 109.017 56.3355C108.677 57.1684 108.345 58.0054 108.003 58.8383C107.888 59.1208 107.918 59.1827 108.237 59.1841C108.807 59.1881 109.379 59.1774 109.95 59.1895C110.209 59.1949 110.346 59.0872 110.431 58.8558C110.618 58.3525 110.817 57.8533 111.022 57.3581C111.546 56.096 112.076 54.8379 112.604 53.5771C112.711 53.3214 112.756 53.0765 112.611 52.8088C112.476 52.5517 112.38 52.2732 112.265 52.0054Z" fill="white"/>
<path d="M25.9347 60.3211C25.9347 59.7492 25.8319 59.6685 25.2489 59.7829C25.2338 59.7856 25.2133 59.7856 25.2023 59.7936C25.1488 59.8367 25.0734 59.873 25.05 59.9295C24.8978 60.2928 24.762 60.6642 24.6098 61.0275C24.5083 61.2697 24.3876 61.5039 24.26 61.777C24.1599 61.6869 24.0639 61.6371 24.0282 61.5604C23.8444 61.1675 23.6483 60.7772 23.5111 60.3682C23.3218 59.8044 23.2697 59.7492 22.6772 59.7721C22.4851 59.7788 22.4111 59.8434 22.4138 60.0399C22.422 60.9549 22.4262 61.8712 22.4124 62.7862C22.4083 63.0351 22.5427 63.0459 22.7265 63.0526C22.9227 63.0607 22.9995 62.9867 22.9967 62.7902C22.9885 62.2533 22.9926 61.7165 22.9954 61.1809C22.9954 61.084 23.0159 60.9871 23.0269 60.8903C23.1819 61.0827 23.2985 61.2765 23.3904 61.481C23.5893 61.9277 23.769 62.3825 23.9733 62.8252C24.0145 62.914 24.1269 62.9961 24.223 63.0257C24.2641 63.0378 24.3725 62.914 24.4122 62.8333C24.5165 62.6207 24.6015 62.3987 24.6934 62.1807C24.8731 61.7541 25.0514 61.3262 25.2311 60.8997C25.2626 60.8997 25.2956 60.8997 25.3271 60.901C25.3545 61.0504 25.4025 61.2011 25.4067 61.3505C25.4176 61.816 25.4135 62.2816 25.4094 62.7472C25.408 62.9275 25.4067 63.0593 25.6673 63.0607C25.9375 63.062 25.9402 62.9302 25.9388 62.7364C25.9306 61.9317 25.9347 61.1271 25.9347 60.3211Z" fill="white"/>
<path d="M39.5192 59.7051C38.3903 59.6997 37.7923 60.394 37.7635 61.418C37.7347 62.4326 38.4767 63.1161 39.5233 63.1336C40.4628 63.1498 41.2652 62.3936 41.2172 61.4153C41.2405 60.3819 40.4971 59.7091 39.5192 59.7051ZM39.751 62.6075C39.142 62.7165 38.5508 62.4272 38.3931 61.7894C38.2847 61.3534 38.3698 60.9498 38.6098 60.573C38.7689 60.3214 39.3587 60.1397 39.7523 60.2232C40.3106 60.3402 40.6151 60.7614 40.6151 61.4153C40.6658 61.9657 40.3037 62.5093 39.751 62.6075Z" fill="white"/>
<path d="M29.8663 59.7051C28.7361 59.6997 28.1395 60.3954 28.1093 61.418C28.0791 62.4326 28.8212 63.1175 29.8691 63.135C30.8086 63.1511 31.6124 62.3949 31.563 61.4167C31.5877 60.3819 30.8415 59.7091 29.8663 59.7051ZM30.1187 62.6035C29.5193 62.7192 28.9076 62.438 28.7443 61.8109C28.6291 61.3696 28.7087 60.9551 28.9569 60.5717C29.1188 60.32 29.7058 60.1411 30.1009 60.2245C30.6591 60.3429 30.9622 60.7627 30.9622 61.418C31.0143 61.9697 30.6276 62.5053 30.1187 62.6035Z" fill="white"/>
<path d="M12.6932 61.5512C12.4929 61.3938 12.2529 61.274 12.0142 61.1758C11.7714 61.0749 11.4944 61.0493 11.2598 60.9363C11.1295 60.8744 10.9814 60.7076 10.9718 60.5797C10.9594 60.3981 11.1076 60.2608 11.3284 60.2353C11.6727 60.1936 11.9991 60.2043 12.2995 60.4075C12.4175 60.4869 12.545 60.5528 12.6644 60.3698C12.7809 60.1936 12.7782 60.0496 12.5958 59.954C12.0608 59.6728 11.4971 59.588 10.9265 59.8316C10.3463 60.0805 10.1694 60.7183 10.5507 61.1839C10.788 61.4718 11.1419 61.566 11.4985 61.6522C11.7207 61.706 11.9484 61.7813 12.1431 61.897C12.4257 62.0652 12.4161 62.3761 12.1157 62.5093C11.9155 62.5981 11.6603 62.6492 11.4491 62.6129C11.1487 62.5604 10.8662 62.4111 10.5562 62.2967C10.2448 62.512 10.2105 62.6721 10.5 62.8336C11.1474 63.1955 11.814 63.2507 12.5025 62.9237C12.8934 62.738 13.1142 61.8836 12.6932 61.5512Z" fill="white"/>
<path d="M8.16612 60.9842C8.16612 60.6532 8.16338 60.3222 8.1675 59.9912C8.17024 59.7974 8.04268 59.7759 7.89592 59.7772C7.74778 59.7772 7.59279 59.7732 7.59417 59.9858C7.59554 60.1513 7.59279 60.3168 7.59279 60.4823C7.59279 60.9008 7.59828 61.3179 7.59005 61.7364C7.58319 62.0472 7.50364 62.3742 7.22109 62.5168C6.5394 62.8586 5.77405 62.4657 5.80148 61.692C5.82068 61.1403 5.79599 60.5873 5.80971 60.0356C5.81519 59.8082 5.69861 59.7772 5.51481 59.7746C5.3365 59.7719 5.22266 59.8068 5.22678 60.0194C5.23501 60.6102 5.21306 61.2036 5.23775 61.7929C5.25147 62.1199 5.31044 62.4469 5.56282 62.7079C5.97293 63.1318 6.49277 63.1694 7.03181 63.1143C7.7519 63.0403 8.11812 62.5249 8.16338 61.8602C8.18259 61.5682 8.16612 61.2749 8.16612 60.9842Z" fill="white"/>
<path d="M51.3386 59.7766C50.9848 59.7726 50.6309 59.7753 50.2784 59.7753C50.2784 59.7753 50.2784 59.7753 50.2784 59.7766C49.9245 59.7766 49.5706 59.7739 49.2181 59.778C49.0865 59.7793 48.9548 59.782 48.963 59.9744C48.9699 60.1494 49.07 60.2072 49.2264 60.2113C49.3306 60.2139 49.4348 60.214 49.5405 60.214C49.9245 60.2153 49.9698 60.2584 49.9698 60.6351C49.9711 61.3523 49.9684 62.0695 49.9739 62.788C49.9739 62.8661 50.0054 63.002 50.0438 63.0101C50.1796 63.0383 50.3332 63.0477 50.4635 63.0114C50.5129 62.9979 50.5417 62.8392 50.5431 62.745C50.55 62.0278 50.5458 61.3106 50.5472 60.5921C50.5486 60.2906 50.6213 60.2207 50.934 60.2126C51.0712 60.2086 51.207 60.2153 51.3441 60.2072C51.5032 60.1978 51.5979 60.1117 51.5979 59.9502C51.5965 59.778 51.4593 59.778 51.3386 59.7766Z" fill="white"/>
<path d="M17.1167 59.7761C16.771 59.7734 16.4268 59.7747 16.0811 59.7747C16.0811 59.7761 16.0811 59.7761 16.0811 59.7774C15.7204 59.7774 15.3583 59.7761 14.9976 59.7788C14.8796 59.7801 14.7726 59.7976 14.7767 59.9577C14.7795 60.1071 14.833 60.2013 14.9962 60.2067C15.1251 60.2107 15.2527 60.2107 15.3816 60.2121C15.7259 60.2148 15.7835 60.2699 15.7835 60.6144C15.7849 61.3383 15.7821 62.0636 15.7876 62.7875C15.7876 62.8655 15.8082 62.9786 15.8617 63.0136C16.0976 63.1696 16.3596 63.0216 16.3609 62.7417C16.3623 62.0246 16.3596 61.3087 16.3623 60.5915C16.3637 60.2888 16.4336 60.2215 16.7464 60.2121C16.8671 60.2094 16.9878 60.2094 17.1071 60.2107C17.273 60.2107 17.3924 60.1502 17.4006 59.9712C17.4102 59.7707 17.2552 59.7774 17.1167 59.7761Z" fill="white"/>
<path d="M35.7903 59.7744C35.0675 59.7758 34.3446 59.7758 33.6218 59.7758C33.4915 59.7758 33.3735 59.7919 33.3818 59.9628C33.3886 60.1068 33.4503 60.2063 33.6108 60.2117C33.7397 60.2158 33.8673 60.2117 33.9962 60.2158C34.3048 60.2238 34.3803 60.2965 34.383 60.5952C34.3858 60.9572 34.383 61.3205 34.3844 61.6824C34.3844 62.0444 34.3913 62.4077 34.3817 62.7697C34.3762 62.9648 34.4324 63.0617 34.6519 63.0563C34.859 63.0509 34.9728 63.0132 34.9673 62.7656C34.9522 62.0256 34.9605 61.2841 34.9632 60.5441C34.9646 60.2871 35.0345 60.2211 35.291 60.2144C35.4597 60.2104 35.6284 60.2131 35.7972 60.2104C35.9823 60.2077 35.9851 60.0772 35.9905 59.9453C35.9947 59.804 35.9124 59.7744 35.7903 59.7744Z" fill="white"/>
<path d="M34.3815 61.682C34.3815 61.32 34.3828 60.9567 34.3802 60.5947C34.3828 60.9567 34.3802 61.3186 34.3815 61.682C34.3815 62.0439 34.3881 62.4072 34.3789 62.7692C34.3881 62.4059 34.3815 62.0439 34.3815 61.682Z" fill="white"/>
<path d="M46.5472 59.7747C46.3785 59.772 46.2455 59.7841 46.2468 60.0061C46.2523 60.944 46.2523 61.8805 46.2468 62.8184C46.2455 63.0148 46.3456 63.0606 46.517 63.0539C46.683 63.0471 46.8366 63.0579 46.8284 62.8117C46.8215 62.5789 46.8202 62.3474 46.8202 62.1147C46.8215 61.8819 46.8229 61.6504 46.8229 61.4176C46.8229 61.1849 46.8202 60.9534 46.8202 60.7206C46.8188 60.4878 46.8202 60.2564 46.8284 60.0236C46.8353 59.803 46.7187 59.7774 46.5472 59.7747Z" fill="white"/>
<path d="M53.7871 61.9213C53.798 61.9683 53.8776 62.0262 53.9325 62.0356C54.1067 62.0625 54.1547 61.9374 54.1629 61.8028C54.1985 61.231 54.2287 60.6578 54.2658 59.9742C54.2671 59.7993 54.2452 59.7778 53.9544 59.7764C53.6746 59.7751 53.6348 59.8087 53.6431 60.0913C53.6527 60.5003 53.6664 60.9094 53.6924 61.3171C53.7061 61.5203 53.7432 61.7221 53.7871 61.9213Z" fill="white"/>
<path d="M53.9324 62.4785C53.7349 62.4812 53.6485 62.6091 53.6252 62.7772C53.6019 62.9468 53.7528 63.1002 53.9256 63.1056C54.1217 63.1123 54.2712 62.9791 54.2726 62.7961C54.274 62.6171 54.1272 62.4772 53.9324 62.4785Z" fill="white"/>
</svg>
