<svg width="209" height="169" viewBox="0 0 209 169" fill="none" xmlns="http://www.w3.org/2000/svg">
<path d="M0 167L-1.74846e-07 169L2 169C16.6189 169 30.33 165.095 43.0977 157.31C55.4211 149.973 65.443 139.664 73.1658 126.436C80.9356 113.576 84.798 98.9068 84.798 82.4878L84.798 4.68293C84.798 3.48256 84.4982 2.2145 83.5477 1.25966C82.5955 0.303212 81.3279 -1.09866e-05 80.127 -1.10916e-05L4.671 -1.76882e-05C3.47012 -1.77931e-05 2.20259 0.303205 1.2504 1.25967C0.299819 2.21449 1.42951e-05 3.48257 1.41902e-05 4.68292L7.62284e-06 79.8049C7.5179e-06 81.0052 0.299812 82.2733 1.25039 83.2281C2.20258 84.1846 3.47012 84.4878 4.671 84.4878L40.0257 84.4878C39.6167 94.7763 36.0241 103.693 29.2389 111.319C21.5869 119.423 12.5397 123.415 2 123.415L3.81035e-06 123.415L3.63551e-06 125.415L0 167ZM124.202 167L124.202 169L126.202 169C140.821 169 154.532 165.095 167.299 157.311C179.623 149.973 189.645 139.664 197.368 126.436C205.138 113.576 209 98.9067 209 82.4878L209 4.68294C209 3.48257 208.7 2.21449 207.75 1.25967C206.797 0.303223 205.53 -1.28522e-07 204.329 -2.33507e-07L128.873 -6.83008e-06C127.672 -6.93507e-06 126.405 0.303216 125.452 1.25967C124.502 2.21449 124.202 3.48257 124.202 4.68293L124.202 79.8049C124.202 81.0052 124.502 82.2733 125.452 83.2281C126.405 84.1846 127.672 84.4878 128.873 84.4878L164.228 84.4878C163.819 94.7763 160.226 103.693 153.441 111.319C145.789 119.423 136.742 123.415 126.202 123.415L124.202 123.415L124.202 125.415L124.202 167Z" stroke="white" stroke-width="4"/>
</svg>
