<svg width="119" height="63" viewBox="0 0 119 63" fill="none" xmlns="http://www.w3.org/2000/svg">
<path fill-rule="evenodd" clip-rule="evenodd" d="M55.4175 38.8248L55.2372 39.0242L55.4366 38.8442C55.5464 38.7451 55.6359 38.6552 55.6359 38.6448C55.6359 38.5972 55.5853 38.6392 55.4175 38.8248ZM43.6528 47.1876C39.9453 48.0852 40.5278 53.6318 44.3493 53.8186C46.5285 53.9251 47.8045 52.7241 47.8616 50.5134L47.8764 49.9428L46.1435 49.9267L44.4105 49.9104V50.6166V51.3229H45.2694C46.2033 51.3229 46.1956 51.3193 46.0114 51.6781C45.5717 52.5355 44.1996 52.7191 43.4791 52.0167C42.7445 51.3012 42.7701 49.6661 43.5261 49.0006C44.155 48.4469 45.0906 48.4954 45.6892 49.1122L45.9352 49.3656L46.6757 48.9943C47.5174 48.5725 47.4924 48.6097 47.1862 48.2321C46.4232 47.2903 44.9847 46.8651 43.6528 47.1876ZM67.2775 47.1858C63.9969 47.981 63.9419 52.8824 67.204 53.7166C69.5932 54.3277 71.4145 52.9627 71.4779 50.5134L71.4925 49.9428L69.7598 49.9267L68.0269 49.9104V50.6166V51.3229H68.8855C69.8193 51.3229 69.8116 51.3193 69.6277 51.6781C69.188 52.5355 67.8159 52.7191 67.0951 52.0167C66.3609 51.3012 66.3861 49.6661 67.1424 49.0006C67.771 48.4469 68.7067 48.4954 69.3055 49.1122L69.5513 49.3656L70.2918 48.9943C71.1334 48.5725 71.1084 48.6097 70.8026 48.2321C70.0413 47.2929 68.5999 46.8651 67.2775 47.1858ZM75.5638 47.1864C74.6531 47.467 74.162 48.1697 74.1614 49.1934C74.1605 50.1927 74.5282 50.5726 75.9229 51.015C76.677 51.2542 76.86 51.4035 76.86 51.7799C76.86 52.612 75.7595 52.6486 74.9429 51.8435C74.5924 51.4978 74.6612 51.4651 74.2265 52.1848C73.7707 52.9392 73.7707 52.9181 74.2238 53.2516C75.3237 54.0614 77.0317 54.0403 77.8923 53.2061C78.4023 52.7122 78.6191 52.008 78.5082 51.2066C78.3927 50.3709 78.0512 50.0505 76.8722 49.6709C76.0074 49.3924 75.817 49.2618 75.817 48.9464C75.817 48.3999 76.6461 48.3006 77.3696 48.7605C77.7195 48.983 77.7002 48.9982 78.0137 48.2568C78.2984 47.5842 78.3082 47.6511 77.8911 47.4417C77.2111 47.1007 76.2013 46.9901 75.5638 47.1864ZM98.4185 47.176C97.327 47.4414 96.3416 48.5014 96.1182 49.6509C95.5628 52.5075 97.9687 54.6002 100.635 53.58L100.967 53.453V52.4799C100.967 51.945 100.949 51.507 100.928 51.507C100.907 51.507 100.779 51.6067 100.644 51.7287C99.466 52.7931 97.8384 52.0777 97.8384 50.4952C97.8384 48.8563 99.4095 48.1152 100.622 49.1824C100.771 49.3139 100.91 49.4216 100.93 49.4216C100.95 49.4216 100.967 48.9818 100.967 48.4446V47.4673L100.626 47.3396C99.9277 47.0787 99.0787 47.0157 98.4185 47.176ZM12.5543 47.254C12.532 47.2766 12.5135 48.7281 12.5135 50.4795V53.6636L14.3078 53.641C16.2722 53.6166 16.5304 53.5723 16.9936 53.1826C17.8977 52.4219 17.6719 50.6883 16.6173 50.2947L16.3088 50.1796L16.5611 50.0659C17.6217 49.5876 17.4943 47.9593 16.3573 47.4566C15.9075 47.2578 12.7206 47.0879 12.5543 47.254ZM20.3652 50.4256V53.6541H21.192H22.0187L22.0354 52.4757L22.0521 51.2976L22.7268 52.4748L23.4015 53.6523L24.4324 53.6532L25.4632 53.6541L24.6008 52.3841L23.7386 51.114L24.0522 50.9971C25.318 50.5247 25.4986 48.4981 24.3524 47.6324C23.9376 47.3194 23.6015 47.2638 21.914 47.2293L20.3652 47.1974V50.4256ZM27.9099 50.4337V53.6541H28.7994H29.6889V50.4337V47.2132H28.7994H27.9099V50.4337ZM32.8172 50.4298V53.6657L34.4888 53.6413C36.3334 53.6143 36.5964 53.5678 37.2431 53.1561C39.1584 51.9357 38.9865 48.5329 36.9632 47.6065C36.3893 47.3438 35.8945 47.2742 34.3047 47.2328L32.8172 47.1942V50.4298ZM50.7286 50.4337V53.6541H51.6488H52.569V50.4337V47.2132H51.6488H50.7286V50.4337ZM55.6972 50.4337V53.6541H56.5611H57.4248L57.4046 51.6008L57.3843 49.5474L57.5604 49.8985C57.6571 50.0915 58.2896 51.0156 58.9653 51.9518L60.1942 53.6541H61.0742H61.954V50.4337V47.2132H61.0954H60.2365L60.2359 49.2529L60.235 51.2922L60.0059 50.8879C59.8798 50.6657 59.241 49.7479 58.5868 48.8486L57.3974 47.2132H56.5475H55.6972V50.4337ZM81.2764 50.4337V53.6541H82.1044H82.9326V52.6182V51.5823L83.776 51.5538C85.4316 51.4972 86.0308 50.9391 86.0299 49.4534C86.029 47.6648 85.3112 47.2147 82.4572 47.2138L81.2764 47.2132V50.4337ZM88.6155 50.3864C88.0199 52.133 87.5326 53.5827 87.5329 53.608C87.5329 53.6333 87.9298 53.6541 88.4144 53.6541H89.2953L89.4473 53.1171L89.5993 52.5804L90.8004 52.5638L92.0017 52.5474L92.0939 52.8705C92.1448 53.0484 92.2108 53.2906 92.2406 53.4087L92.2947 53.6232L93.1956 53.6401C93.6912 53.6497 94.0958 53.6497 94.0946 53.6401C94.0937 53.6309 93.6019 52.188 93.0022 50.4337L91.9115 47.2438L90.8051 47.2272L89.699 47.2105L88.6155 50.3864ZM103.666 50.4337V53.6541H105.629H107.591V52.9178V52.1818H106.518H105.445V51.6912V51.2003H106.457H107.469V50.4643V49.7283H106.457H105.445V49.2068V48.6852H106.518H107.591V47.9492V47.2132H105.629H103.666V50.4337ZM91.3237 50.265L91.6298 51.2616H90.8102C90.1813 51.2616 89.9968 51.2438 90.0173 51.1851C90.1369 50.8409 90.7849 48.5924 90.7876 48.5121C90.7894 48.4556 90.842 48.6025 90.9042 48.8387C90.9664 49.075 91.155 49.7167 91.3237 50.265ZM15.2402 48.6495C15.485 48.7519 15.5805 48.9051 15.5805 49.196C15.5805 49.6036 15.266 49.7848 14.5532 49.7881L14.231 49.7896V49.1761V48.5627H14.6318C14.8522 48.5627 15.1259 48.6016 15.2402 48.6495ZM22.8428 48.7055C23.8061 48.9964 23.4414 50.2189 22.3912 50.2189H22.0214V49.4216V48.6239L22.3127 48.6287C22.473 48.6314 22.7116 48.6659 22.8428 48.7055ZM83.9739 48.7929C84.7224 49.1696 84.3458 50.0302 83.4086 50.0844L82.9326 50.1121V49.3986V48.6852L83.3467 48.6855C83.6184 48.6855 83.8338 48.7224 83.9739 48.7929ZM35.7241 48.8337C36.4176 49.0422 36.7502 49.5563 36.7478 50.4152C36.7445 51.5948 36.2801 52.094 35.1184 52.1666L34.5962 52.199V50.4729V48.7468H35.0157C35.2466 48.7468 35.5652 48.7858 35.7241 48.8337ZM15.5549 51.1146C15.9295 51.2925 15.9681 51.8861 15.6216 52.1449C15.4865 52.2457 15.3368 52.2743 14.8427 52.2942L14.231 52.3186V51.6275V50.9367L14.7885 50.9763C15.0953 50.998 15.4401 51.0602 15.5549 51.1146ZM38.2368 57.0846C38.0151 57.22 37.9283 57.4369 37.823 58.1223L37.7507 58.5918L37.529 58.6105C37.1539 58.642 37.0774 59.2359 37.4484 59.2359C37.5665 59.2359 37.6632 59.26 37.6632 59.2891C37.6632 59.3183 37.6079 59.7499 37.5406 60.248C37.4731 60.7463 37.4178 61.1794 37.4178 61.2104C37.4178 61.2413 37.5626 61.2583 37.74 61.2482L38.0619 61.2294L38.1945 60.248C38.2674 59.7083 38.3293 59.2597 38.3326 59.2513C38.3356 59.243 38.4453 59.2359 38.5768 59.2359C38.8413 59.2359 38.8901 59.1731 38.8901 58.8321C38.8901 58.6281 38.8836 58.6227 38.6408 58.6227H38.3918L38.4311 58.3312C38.5203 57.6713 38.6705 57.4613 38.9719 57.5758C39.137 57.6386 39.1941 57.5437 39.1959 57.203C39.1971 56.9356 38.6018 56.8618 38.2368 57.0846ZM46.9869 57.0623C46.9869 57.1248 46.4984 60.8572 46.4636 61.0607L46.4294 61.2604H46.7578H47.0863L47.1865 60.4901C47.3044 59.5845 47.4171 59.3111 47.7381 59.1543C48.4628 58.8003 48.6143 59.309 48.3049 61.0607L48.2694 61.2604H48.6003H48.9311L49.0325 60.5005C49.1593 59.5512 49.1605 59.1585 49.0379 58.9214C48.8472 58.5528 48.2091 58.4499 47.7027 58.7063C47.3647 58.8774 47.3808 58.9592 47.5319 57.8406L47.6417 57.0278H47.3142C47.1342 57.0278 46.9869 57.0433 46.9869 57.0623ZM82.4789 57.1965C82.4426 57.375 82.2579 58.7917 82.2579 58.8902C82.2579 58.9223 82.2085 58.9035 82.1481 58.8491C81.5469 58.305 80.6398 58.5394 80.2863 59.3302C79.7276 60.58 80.6451 61.8164 81.7236 61.2669C81.8488 61.2029 81.9512 61.1753 81.9512 61.2056C81.9512 61.2357 82.096 61.2601 82.2731 61.2601H82.5953L82.8585 59.19C83.0034 58.0512 83.1209 57.0989 83.1195 57.0736C83.1102 56.9189 82.5117 57.0337 82.4789 57.1965ZM32.2656 57.2444C31.3639 57.6517 31.2839 58.7399 32.1163 59.2781C32.9189 59.7969 33.0614 59.9695 32.9743 60.3173C32.824 60.9156 32.0124 60.9355 31.6635 60.3491L31.5412 60.1435L31.305 60.3604L31.0691 60.5773L31.1907 60.8046C31.6423 61.6486 33.1569 61.5692 33.5606 60.6799C33.8724 59.9936 33.6139 59.3959 32.7987 58.919C32.1213 58.5224 32.0342 58.075 32.5819 57.8072C32.8591 57.6716 33.0653 57.7144 33.309 57.9581C33.5032 58.1523 33.599 58.141 33.8195 57.8974C34.1952 57.4821 32.9231 56.9475 32.2656 57.2444ZM43.7697 57.2884C43.7566 57.3307 43.7296 57.4824 43.7096 57.6258L43.673 57.8864H44.1952C44.6845 57.8864 44.7173 57.8944 44.7173 58.0152C44.7173 58.1663 44.3624 60.92 44.3168 61.1223C44.2874 61.2532 44.304 61.2604 44.6432 61.2604H45.0005L45.2013 59.6806C45.3117 58.8119 45.4155 58.053 45.4319 57.9938C45.4572 57.9033 45.5369 57.8864 45.9418 57.8864C46.4764 57.8864 46.4963 57.8709 46.4963 57.452V57.2117H45.1448C44.1172 57.2117 43.7879 57.2301 43.7697 57.2884ZM65.668 57.3497C65.6516 57.4256 65.5398 58.2606 65.4202 59.2052C65.3003 60.1501 65.1866 61.0003 65.1673 61.0946L65.1328 61.2666L65.491 61.2482L65.8492 61.2294L65.9512 60.4321C66.0074 59.9936 66.0559 59.5872 66.0586 59.5292C66.0634 59.4358 66.1577 59.4215 66.8767 59.4063L67.6895 59.3894L67.7082 59.0978L67.7267 58.8066H66.9481H66.1696L66.2082 58.4847C66.2294 58.3073 66.2472 58.1003 66.2475 58.0244C66.2478 57.8882 66.2582 57.8864 67.0761 57.8864H67.904V57.7409C67.904 57.6606 67.9213 57.5089 67.9424 57.4035L67.9808 57.2117H66.8395C65.7058 57.2117 65.698 57.2125 65.668 57.3497ZM74.8355 57.3574C74.8355 57.4375 74.8183 57.5895 74.7974 57.6948L74.759 57.8864H75.288C75.7012 57.8864 75.817 57.9054 75.817 57.9727C75.817 58.0708 75.4683 60.7564 75.4156 61.064L75.3808 61.2666L75.736 61.2482L76.091 61.2294L76.3067 59.5732L76.5223 57.917L77.0213 57.8995L77.5202 57.8816L77.5579 57.6924C77.5788 57.5883 77.596 57.4375 77.596 57.3574V57.2117H76.2159H74.8355V57.3574ZM34.8399 58.6992C34.3276 58.9583 34.05 59.6907 34.172 60.4619C34.294 61.233 35.0315 61.6168 35.7178 61.2669C35.8431 61.2029 35.9457 61.1753 35.9457 61.2056C35.9457 61.2357 36.0912 61.2604 36.2694 61.2604H36.5931L36.7362 60.1102C36.815 59.4774 36.8936 58.8839 36.9108 58.7914C36.9424 58.6236 36.9406 58.6227 36.5972 58.6227C36.2649 58.6227 36.2524 58.6284 36.2524 58.7854C36.2524 58.9354 36.2438 58.941 36.145 58.8542C35.7824 58.5361 35.2802 58.4766 34.8399 58.6992ZM39.9474 58.6432C38.8252 59.0502 38.6711 60.7933 39.7157 61.2675C40.2884 61.5278 41.423 61.2157 41.4016 60.804C41.3954 60.6838 41.0285 60.4375 40.9464 60.4982C40.6106 60.7472 40.4993 60.7974 40.2839 60.7974C40.0019 60.7974 39.6874 60.5074 39.6874 60.2471V60.0947H40.6772H41.667L41.6349 59.6943C41.564 58.811 40.7986 58.3344 39.9474 58.6432ZM50.5218 58.6513C49.4529 59.0324 49.2708 60.7772 50.2505 61.2514C50.7863 61.5109 51.5774 61.3731 51.8987 60.9643L52.0266 60.8019L51.8368 60.6323C51.6541 60.4693 51.4649 60.4083 51.4649 60.5127C51.4649 60.5818 51.0115 60.8308 50.886 60.8308C50.6108 60.8308 50.371 60.5984 50.2684 60.2328L50.2297 60.0947H51.2153H52.2009V59.7363C52.2009 58.8304 51.4254 58.3294 50.5218 58.6513ZM53.7804 58.6804C53.5912 58.7845 53.5504 58.7905 53.5504 58.7146C53.5504 58.6453 53.476 58.6227 53.2476 58.6227H52.9444L52.9057 58.8833C52.8846 59.0267 52.8052 59.6202 52.729 60.2021L52.591 61.2604H52.9173C53.0967 61.2604 53.2437 61.2473 53.2437 61.2318C53.2437 60.0162 53.7619 58.9267 54.2225 59.1731C54.287 59.2076 54.3531 59.2359 54.3694 59.2359C54.4209 59.2359 54.6125 58.6828 54.5744 58.6447C54.4691 58.5391 53.9984 58.5602 53.7804 58.6804ZM55.3908 58.6298C54.5241 58.9746 54.2927 60.6793 55.0385 61.2232C55.3167 61.4258 55.9147 61.4341 56.2 61.2392C56.3377 61.1452 56.4133 61.119 56.3927 61.1726C56.366 61.2422 56.4299 61.2604 56.7027 61.2604C56.9369 61.2604 57.047 61.2357 57.0473 61.1836C57.0473 61.1414 57.1163 60.5963 57.2002 59.9722C57.3995 58.4918 57.4141 58.6227 57.0481 58.6227C56.7715 58.6227 56.7387 58.6373 56.703 58.7795L56.6638 58.9366L56.5332 58.8143C56.2752 58.5727 55.7484 58.4876 55.3908 58.6298ZM58.9322 58.684C58.7418 58.786 58.7032 58.7911 58.7032 58.7146C58.7032 58.4963 58.0995 58.5971 58.0608 58.822C58.021 59.055 57.5988 62.3004 57.5988 62.3751C57.5988 62.4596 58.2132 62.4346 58.2405 62.3489C58.2539 62.307 58.2977 61.9883 58.3378 61.6409C58.4104 61.0122 58.4113 61.0099 58.5416 61.1048C59.1988 61.5837 60.0119 61.3823 60.3471 60.6576C60.9374 59.3816 60.0196 58.1012 58.9322 58.684ZM68.7016 58.7274C67.7178 59.2421 67.6556 60.8355 68.6025 61.2654C69.9684 61.886 71.3404 60.3518 70.5431 59.0948C70.2082 58.5662 69.34 58.393 68.7016 58.7274ZM72.2746 58.6795C72.1137 58.7807 72.0753 58.7872 72.0753 58.7137C72.0753 58.6453 71.9994 58.6227 71.7712 58.6227C71.4166 58.6227 71.4708 58.4716 71.2774 60.0028C71.209 60.5425 71.1393 61.0462 71.1224 61.1223C71.0932 61.252 71.1111 61.2604 71.4238 61.2604H71.7561L71.8275 60.7234C72.0104 59.3474 72.2672 58.9517 72.8172 59.1981C72.9172 59.2427 73.1769 58.7224 73.0951 58.6406C72.9898 58.5352 72.4647 58.5602 72.2746 58.6795ZM77.7251 58.723C76.7104 59.2284 76.6586 60.8382 77.643 61.2737C78.3374 61.5811 79.2141 61.3011 79.5765 60.657C80.2988 59.3727 79.0464 58.0643 77.7251 58.723ZM84.0661 58.6468C83.2301 59.0109 83.0213 60.6802 83.7445 61.2193C83.9995 61.4091 84.576 61.4338 84.8935 61.2684C85.0294 61.1976 85.141 61.1666 85.141 61.2C85.141 61.2493 85.7535 61.2943 85.7547 61.2449C85.7547 61.2366 85.8238 60.7189 85.9076 60.0947C86.1183 58.5287 86.1281 58.6227 85.7541 58.6227C85.4885 58.6227 85.4474 58.6391 85.4474 58.7453C85.4474 58.8988 85.4516 58.8991 85.1044 58.7146C84.7804 58.5424 84.3678 58.5153 84.0661 58.6468ZM60.8493 58.6962C60.849 58.7399 61.0046 59.2385 61.1953 59.8041L61.5416 60.8323L61.267 61.2764C61.1159 61.5204 60.8904 61.8789 60.7657 62.0728L60.5393 62.4257L60.894 62.4248L61.2486 62.4242L62.3684 60.6201C63.7369 58.4145 63.6542 58.6114 63.2044 58.6346L62.8438 58.6533L62.3895 59.4414L61.9355 60.2298L61.8245 59.8094C61.7636 59.5783 61.6627 59.2237 61.6005 59.0214L61.4872 58.6533L61.1685 58.6346C60.9386 58.6212 60.8499 58.6385 60.8493 58.6962ZM86.3676 58.6569C86.3676 58.676 86.5327 59.174 86.7344 59.7636L87.1012 60.8358L86.6086 61.6153L86.1159 62.395L86.4345 62.4138C86.8305 62.4373 86.663 62.6431 87.9937 60.4985C89.3176 58.3645 89.2105 58.6227 88.772 58.6227H88.4162L87.9554 59.4152L87.4948 60.2078L87.4187 59.9213C87.3767 59.7636 87.2717 59.4069 87.1851 59.1288L87.028 58.6227H86.6978C86.5163 58.6227 86.3676 58.6382 86.3676 58.6569ZM81.8881 59.2043C82.1529 59.3679 82.2011 60.0754 81.9738 60.4598C81.6554 60.9989 80.9492 60.8831 80.8144 60.2703C80.6425 59.4866 81.2958 58.8381 81.8881 59.2043ZM35.8264 59.1764C36.2983 59.4289 36.1816 60.4919 35.6548 60.7418C35.1097 61.0003 34.6546 60.4285 34.8417 59.7211C34.9779 59.207 35.4233 58.9607 35.8264 59.1764ZM40.7962 59.2927C41.0794 59.5756 41.0393 59.6042 40.3547 59.6042H39.7338L39.8231 59.4661C40.0518 59.1124 40.5308 59.027 40.7962 59.2927ZM51.4188 59.3022C51.6336 59.5649 51.572 59.6042 50.9434 59.6042C50.3517 59.6042 50.3008 59.5839 50.4373 59.4036C50.667 59.1011 51.2085 59.0452 51.4188 59.3022ZM56.3767 59.2927C56.7286 59.6446 56.5784 60.4877 56.1214 60.7249C55.5243 61.0348 55.0385 60.2718 55.3536 59.5182C55.5359 59.0814 56.0518 58.9678 56.3767 59.2927ZM59.6174 59.2597C59.8515 59.4453 59.9354 60.0001 59.784 60.3625C59.5135 61.0096 58.6642 60.956 58.5505 60.2845C58.4211 59.5182 59.1089 58.8574 59.6174 59.2597ZM69.7179 59.2031C70.4444 59.5066 70.0555 60.832 69.2404 60.8305C68.4749 60.8293 68.3648 59.5676 69.1003 59.229C69.3992 59.0913 69.4457 59.0895 69.7179 59.2031ZM78.8631 59.2674C79.2885 59.5461 79.1332 60.4857 78.6215 60.7284C77.9102 61.0658 77.3548 60.3866 77.7216 59.6286C77.9533 59.1499 78.446 58.994 78.8631 59.2674ZM85.0702 59.2567C85.4578 59.6693 85.3085 60.5318 84.814 60.7382C84.2107 60.9905 83.7793 60.3194 84.0646 59.572C84.2437 59.1029 84.7706 58.9378 85.0702 59.2567Z" fill="#343434"/>
<path fill-rule="evenodd" clip-rule="evenodd" d="M59.1018 0.652032C56.2969 1.11584 54.6535 3.23703 55.0445 5.88807C55.5318 9.19362 58.6796 10.7856 61.7448 9.27692C66.1883 7.08968 63.9686 -0.153306 59.1018 0.652032ZM23.2575 11.0854C20.8885 11.41 19.4272 13.4833 19.9654 15.7562C20.9055 19.7273 26.6604 19.7651 27.7034 15.8068C28.4141 13.1093 26.1368 10.6909 23.2575 11.0854ZM94.0753 11.2074C89.3714 12.3965 91.0517 19.539 95.8448 18.7289C99.3625 18.1345 100.46 13.4625 97.5004 11.6822C96.5689 11.122 95.1763 10.9289 94.0753 11.2074ZM55.7588 12.8996C55.5731 12.9112 54.8969 12.9499 54.2558 12.9853C41.5274 13.6883 29.0475 17.4088 20.6104 23.0159C11.513 29.062 5.62963 35.7302 4.62229 41.1373C4.36941 42.4948 4.29653 42.8004 4.11773 43.2469C3.7158 44.251 3.84224 44.386 5.19558 44.3997C6.21928 44.4098 6.35732 44.3506 7.0276 43.6143C7.59434 42.9919 7.78593 42.8911 8.59008 42.7923C9.94401 42.6263 10.4045 42.7733 11.2453 43.6402C12.0414 44.4616 11.6121 44.3914 15.8563 44.3914H19.5096L19.4215 44.2218C19.3246 44.0341 18.9295 43.6804 18.0033 42.9518C16.1329 41.48 14.3298 38.5455 14.0076 36.4478C13.7259 34.6137 14.2063 33.3407 15.9518 31.2954C17.6356 29.3226 17.8171 29.2212 19.9808 29.0474C25.8101 28.5789 28.3174 31.8428 27.9741 39.4538C27.9375 40.2633 27.8902 41.6874 27.8688 42.6186L27.8298 44.3111L28.0693 44.3506C28.2011 44.3724 29.0642 44.3905 29.9873 44.3908L31.6661 44.3914L31.6266 43.9776C31.6045 43.7497 31.543 43.1356 31.4891 42.6126C31.2993 40.7696 31.5549 39.7435 32.3471 39.1696C33.4342 38.3822 35.7913 38.9293 37.0548 40.2624C37.645 40.885 37.8328 41.1831 39.0552 43.4409C39.2379 43.7782 39.469 44.1302 39.569 44.2227L39.7508 44.3914H41.6411C42.6809 44.3914 43.5481 44.375 43.5683 44.3545C43.6308 44.292 43.2738 43.3623 42.6725 42.0218C41.9999 40.5218 41.802 40.0303 41.1565 38.2554C40.8923 37.5289 40.4374 36.3282 40.1455 35.5871C39.3676 33.612 39.1474 33.031 38.8797 32.2462C37.5118 28.2367 37.4011 25.4459 38.52 23.1676C41.2195 17.6701 49.6519 17.4258 52.3381 22.7672C54.0776 26.2256 53.3558 30.4231 49.4264 39.6989C48.1608 42.6864 47.6015 44.229 47.7354 44.3628C47.7548 44.3825 48.6428 44.3786 49.7088 44.3548L51.6467 44.3114L51.8877 43.9374C52.02 43.7318 52.394 43.0985 52.7186 42.5299C55.4907 37.675 58.5681 35.8221 61.4994 37.2439C63.1764 38.0573 64.7133 39.7816 66.492 42.845C67.4705 44.5303 67.4958 44.5404 70.4399 44.4235L71.5957 44.3777L71.5543 44.1546C71.4386 43.5307 70.6261 41.3825 69.2537 38.0733C66.8538 32.286 65.8209 28.1918 66.119 25.65C66.7161 20.5558 71.4919 17.5969 76.3501 19.3108C80.571 20.7998 82.3837 24.8574 81.0848 29.9108C80.629 31.6854 77.8763 39.2741 76.6779 42.0605C76.2513 43.0529 76.0463 43.5801 75.9133 44.0281L75.8238 44.3301H77.6534H79.4831L79.7285 43.9469C79.8633 43.736 80.1986 43.1538 80.4735 42.6531C82.5292 38.9075 86.0951 37.5215 87.3517 39.9794C87.6748 40.6116 87.7402 41.5803 87.5644 43.1342C87.5147 43.5727 87.4737 44.0353 87.4731 44.1623L87.4719 44.3932L89.5419 44.3771L91.6122 44.3608L91.6313 44.0279C91.6467 43.7556 91.6161 43.6268 91.4635 43.3225C91.3323 43.0607 91.2764 42.859 91.2746 42.6433C91.2273 36.7191 91.3733 34.9903 92.0713 33.208C93.6272 29.234 97.7155 27.6423 101.457 29.5538C105.448 31.5923 106.522 36.5275 103.768 40.1788C102.747 41.5315 101.311 43.0437 100.548 43.5694C100.151 43.8425 99.8626 44.1576 99.8626 44.3188C99.8626 44.3741 100.702 44.3914 103.37 44.3914C107.425 44.3914 107.149 44.4316 107.71 43.7616C108.335 43.016 108.787 42.7968 109.801 42.7504C111.087 42.6915 111.745 42.9928 112.686 44.0719L112.964 44.3914H114.05H115.136L115.136 43.7015C115.133 38.0052 108.697 29.5237 99.9134 23.6412C90.7828 17.5264 79.3251 14.0417 64.9599 13.0103C63.6818 12.9183 56.7753 12.8353 55.7588 12.8996ZM2.20985 30.8723C1.57884 31.0419 1.20578 31.3337 0.689313 32.062C0.533719 32.2813 0.315055 32.574 0.203194 32.7124L0 32.964V33.8319C0 34.3605 0.0235027 34.6997 0.0603929 34.6997C0.0937132 34.6997 0.357003 35.0156 0.64558 35.4021C1.3938 36.4032 1.76359 36.6614 2.62397 36.7834C4.7758 37.0886 6.40314 35.4419 6.07886 33.288C5.81171 31.5125 4.01092 30.3883 2.20985 30.8723ZM115.382 30.8765C111.956 31.4209 112.253 36.6058 115.716 36.7144C117.679 36.7762 118.996 35.6071 119 33.7979C119.005 31.8273 117.425 30.5516 115.382 30.8765Z" fill="#54A494"/>
<path fill-rule="evenodd" clip-rule="evenodd" d="M55.4175 38.8248L55.2372 39.0242L55.4366 38.8442C55.5464 38.7451 55.6359 38.6552 55.6359 38.6448C55.6359 38.5972 55.5853 38.6392 55.4175 38.8248ZM43.6528 47.1876C39.9453 48.0852 40.5278 53.6318 44.3493 53.8186C46.5285 53.9251 47.8045 52.7241 47.8616 50.5134L47.8764 49.9428L46.1435 49.9267L44.4105 49.9104V50.6166V51.3229H45.2694C46.2033 51.3229 46.1956 51.3193 46.0114 51.6781C45.5717 52.5355 44.1996 52.7191 43.4791 52.0167C42.7445 51.3012 42.7701 49.6661 43.5261 49.0006C44.155 48.4469 45.0906 48.4954 45.6892 49.1122L45.9352 49.3656L46.6757 48.9943C47.5174 48.5725 47.4924 48.6097 47.1862 48.2321C46.4232 47.2903 44.9847 46.8651 43.6528 47.1876ZM67.2775 47.1858C63.9969 47.981 63.9419 52.8824 67.204 53.7166C69.5932 54.3277 71.4145 52.9627 71.4779 50.5134L71.4925 49.9428L69.7598 49.9267L68.0269 49.9104V50.6166V51.3229H68.8855C69.8193 51.3229 69.8116 51.3193 69.6277 51.6781C69.188 52.5355 67.8159 52.7191 67.0951 52.0167C66.3609 51.3012 66.3861 49.6661 67.1424 49.0006C67.771 48.4469 68.7067 48.4954 69.3055 49.1122L69.5513 49.3656L70.2918 48.9943C71.1334 48.5725 71.1084 48.6097 70.8026 48.2321C70.0413 47.2929 68.5999 46.8651 67.2775 47.1858ZM75.5638 47.1864C74.6531 47.467 74.162 48.1697 74.1614 49.1934C74.1605 50.1927 74.5282 50.5726 75.9229 51.015C76.677 51.2542 76.86 51.4035 76.86 51.7799C76.86 52.612 75.7595 52.6486 74.9429 51.8435C74.5924 51.4978 74.6612 51.4651 74.2265 52.1848C73.7707 52.9392 73.7707 52.9181 74.2238 53.2516C75.3237 54.0614 77.0317 54.0403 77.8923 53.2061C78.4023 52.7122 78.6191 52.008 78.5082 51.2066C78.3927 50.3709 78.0512 50.0505 76.8722 49.6709C76.0074 49.3924 75.817 49.2618 75.817 48.9464C75.817 48.3999 76.6461 48.3006 77.3696 48.7605C77.7195 48.983 77.7002 48.9982 78.0137 48.2568C78.2984 47.5842 78.3082 47.6511 77.8911 47.4417C77.2111 47.1007 76.2013 46.9901 75.5638 47.1864ZM98.4185 47.176C97.327 47.4414 96.3416 48.5014 96.1182 49.6509C95.5628 52.5075 97.9687 54.6002 100.635 53.58L100.967 53.453V52.4799C100.967 51.945 100.949 51.507 100.928 51.507C100.907 51.507 100.779 51.6067 100.644 51.7287C99.466 52.7931 97.8384 52.0777 97.8384 50.4952C97.8384 48.8563 99.4095 48.1152 100.622 49.1824C100.771 49.3139 100.91 49.4216 100.93 49.4216C100.95 49.4216 100.967 48.9818 100.967 48.4446V47.4673L100.626 47.3396C99.9277 47.0787 99.0787 47.0157 98.4185 47.176ZM12.5543 47.254C12.532 47.2766 12.5135 48.7281 12.5135 50.4795V53.6636L14.3078 53.641C16.2722 53.6166 16.5304 53.5723 16.9936 53.1826C17.8977 52.4219 17.6719 50.6883 16.6173 50.2947L16.3088 50.1796L16.5611 50.0659C17.6217 49.5876 17.4943 47.9593 16.3573 47.4566C15.9075 47.2578 12.7206 47.0879 12.5543 47.254ZM20.3652 50.4256V53.6541H21.192H22.0187L22.0354 52.4757L22.0521 51.2976L22.7268 52.4748L23.4015 53.6523L24.4324 53.6532L25.4632 53.6541L24.6008 52.3841L23.7386 51.114L24.0522 50.9971C25.318 50.5247 25.4986 48.4981 24.3524 47.6324C23.9376 47.3194 23.6015 47.2638 21.914 47.2293L20.3652 47.1974V50.4256ZM27.9099 50.4337V53.6541H28.7994H29.6889V50.4337V47.2132H28.7994H27.9099V50.4337ZM32.8172 50.4298V53.6657L34.4888 53.6413C36.3334 53.6143 36.5964 53.5678 37.2431 53.1561C39.1584 51.9357 38.9865 48.5329 36.9632 47.6065C36.3893 47.3438 35.8945 47.2742 34.3047 47.2328L32.8172 47.1942V50.4298ZM50.7286 50.4337V53.6541H51.6488H52.569V50.4337V47.2132H51.6488H50.7286V50.4337ZM55.6972 50.4337V53.6541H56.5611H57.4248L57.4046 51.6008L57.3843 49.5474L57.5604 49.8985C57.6571 50.0915 58.2896 51.0156 58.9653 51.9518L60.1942 53.6541H61.0742H61.954V50.4337V47.2132H61.0954H60.2365L60.2359 49.2529L60.235 51.2922L60.0059 50.8879C59.8798 50.6657 59.241 49.7479 58.5868 48.8486L57.3974 47.2132H56.5475H55.6972V50.4337ZM81.2764 50.4337V53.6541H82.1044H82.9326V52.6182V51.5823L83.776 51.5538C85.4316 51.4972 86.0308 50.9391 86.0299 49.4534C86.029 47.6648 85.3112 47.2147 82.4572 47.2138L81.2764 47.2132V50.4337ZM88.6155 50.3864C88.0199 52.133 87.5326 53.5827 87.5329 53.608C87.5329 53.6333 87.9298 53.6541 88.4144 53.6541H89.2953L89.4473 53.1171L89.5993 52.5804L90.8004 52.5638L92.0017 52.5474L92.0939 52.8705C92.1448 53.0484 92.2108 53.2906 92.2406 53.4087L92.2947 53.6232L93.1956 53.6401C93.6912 53.6497 94.0958 53.6497 94.0946 53.6401C94.0937 53.6309 93.6019 52.188 93.0022 50.4337L91.9115 47.2438L90.8051 47.2272L89.699 47.2105L88.6155 50.3864ZM103.666 50.4337V53.6541H105.629H107.591V52.9178V52.1818H106.518H105.445V51.6912V51.2003H106.457H107.469V50.4643V49.7283H106.457H105.445V49.2068V48.6852H106.518H107.591V47.9492V47.2132H105.629H103.666V50.4337ZM91.3237 50.265L91.6298 51.2616H90.8102C90.1813 51.2616 89.9968 51.2438 90.0173 51.1851C90.1369 50.8409 90.7849 48.5924 90.7876 48.5121C90.7894 48.4556 90.842 48.6025 90.9042 48.8387C90.9664 49.075 91.155 49.7167 91.3237 50.265ZM15.2402 48.6495C15.485 48.7519 15.5805 48.9051 15.5805 49.196C15.5805 49.6036 15.266 49.7848 14.5532 49.7881L14.231 49.7896V49.1761V48.5627H14.6318C14.8522 48.5627 15.1259 48.6016 15.2402 48.6495ZM22.8428 48.7055C23.8061 48.9964 23.4414 50.2189 22.3912 50.2189H22.0214V49.4216V48.6239L22.3127 48.6287C22.473 48.6314 22.7116 48.6659 22.8428 48.7055ZM83.9739 48.7929C84.7224 49.1696 84.3458 50.0302 83.4086 50.0844L82.9326 50.1121V49.3986V48.6852L83.3467 48.6855C83.6184 48.6855 83.8338 48.7224 83.9739 48.7929ZM35.7241 48.8337C36.4176 49.0422 36.7502 49.5563 36.7478 50.4152C36.7445 51.5948 36.2801 52.094 35.1184 52.1666L34.5962 52.199V50.4729V48.7468H35.0157C35.2466 48.7468 35.5652 48.7858 35.7241 48.8337ZM15.5549 51.1146C15.9295 51.2925 15.9681 51.8861 15.6216 52.1449C15.4865 52.2457 15.3368 52.2743 14.8427 52.2942L14.231 52.3186V51.6275V50.9367L14.7885 50.9763C15.0953 50.998 15.4401 51.0602 15.5549 51.1146ZM38.2368 57.0846C38.0151 57.22 37.9283 57.4369 37.823 58.1223L37.7507 58.5918L37.529 58.6105C37.1539 58.642 37.0774 59.2359 37.4484 59.2359C37.5665 59.2359 37.6632 59.26 37.6632 59.2891C37.6632 59.3183 37.6079 59.7499 37.5406 60.248C37.4731 60.7463 37.4178 61.1794 37.4178 61.2104C37.4178 61.2413 37.5626 61.2583 37.74 61.2482L38.0619 61.2294L38.1945 60.248C38.2674 59.7083 38.3293 59.2597 38.3326 59.2513C38.3356 59.243 38.4453 59.2359 38.5768 59.2359C38.8413 59.2359 38.8901 59.1731 38.8901 58.8321C38.8901 58.6281 38.8836 58.6227 38.6408 58.6227H38.3918L38.4311 58.3312C38.5203 57.6713 38.6705 57.4613 38.9719 57.5758C39.137 57.6386 39.1941 57.5437 39.1959 57.203C39.1971 56.9356 38.6018 56.8618 38.2368 57.0846ZM46.9869 57.0623C46.9869 57.1248 46.4984 60.8572 46.4636 61.0607L46.4294 61.2604H46.7578H47.0863L47.1865 60.4901C47.3044 59.5845 47.4171 59.3111 47.7381 59.1543C48.4628 58.8003 48.6143 59.309 48.3049 61.0607L48.2694 61.2604H48.6003H48.9311L49.0325 60.5005C49.1593 59.5512 49.1605 59.1585 49.0379 58.9214C48.8472 58.5528 48.2091 58.4499 47.7027 58.7063C47.3647 58.8774 47.3808 58.9592 47.5319 57.8406L47.6417 57.0278H47.3142C47.1342 57.0278 46.9869 57.0433 46.9869 57.0623ZM82.4789 57.1965C82.4426 57.375 82.2579 58.7917 82.2579 58.8902C82.2579 58.9223 82.2085 58.9035 82.1481 58.8491C81.5469 58.305 80.6398 58.5394 80.2863 59.3302C79.7276 60.58 80.6451 61.8164 81.7236 61.2669C81.8488 61.2029 81.9512 61.1753 81.9512 61.2056C81.9512 61.2357 82.096 61.2601 82.2731 61.2601H82.5953L82.8585 59.19C83.0034 58.0512 83.1209 57.0989 83.1195 57.0736C83.1102 56.9189 82.5117 57.0337 82.4789 57.1965ZM32.2656 57.2444C31.3639 57.6517 31.2839 58.7399 32.1163 59.2781C32.9189 59.7969 33.0614 59.9695 32.9743 60.3173C32.824 60.9156 32.0124 60.9355 31.6635 60.3491L31.5412 60.1435L31.305 60.3604L31.0691 60.5773L31.1907 60.8046C31.6423 61.6486 33.1569 61.5692 33.5606 60.6799C33.8724 59.9936 33.6139 59.3959 32.7987 58.919C32.1213 58.5224 32.0342 58.075 32.5819 57.8072C32.8591 57.6716 33.0653 57.7144 33.309 57.9581C33.5032 58.1523 33.599 58.141 33.8195 57.8974C34.1952 57.4821 32.9231 56.9475 32.2656 57.2444ZM43.7697 57.2884C43.7566 57.3307 43.7296 57.4824 43.7096 57.6258L43.673 57.8864H44.1952C44.6845 57.8864 44.7173 57.8944 44.7173 58.0152C44.7173 58.1663 44.3624 60.92 44.3168 61.1223C44.2874 61.2532 44.304 61.2604 44.6432 61.2604H45.0005L45.2013 59.6806C45.3117 58.8119 45.4155 58.053 45.4319 57.9938C45.4572 57.9033 45.5369 57.8864 45.9418 57.8864C46.4764 57.8864 46.4963 57.8709 46.4963 57.452V57.2117H45.1448C44.1172 57.2117 43.7879 57.2301 43.7697 57.2884ZM65.668 57.3497C65.6516 57.4256 65.5398 58.2606 65.4202 59.2052C65.3003 60.1501 65.1866 61.0003 65.1673 61.0946L65.1328 61.2666L65.491 61.2482L65.8492 61.2294L65.9512 60.4321C66.0074 59.9936 66.0559 59.5872 66.0586 59.5292C66.0634 59.4358 66.1577 59.4215 66.8767 59.4063L67.6895 59.3894L67.7082 59.0978L67.7267 58.8066H66.9481H66.1696L66.2082 58.4847C66.2294 58.3073 66.2472 58.1003 66.2475 58.0244C66.2478 57.8882 66.2582 57.8864 67.0761 57.8864H67.904V57.7409C67.904 57.6606 67.9213 57.5089 67.9424 57.4035L67.9808 57.2117H66.8395C65.7058 57.2117 65.698 57.2125 65.668 57.3497ZM74.8355 57.3574C74.8355 57.4375 74.8183 57.5895 74.7974 57.6948L74.759 57.8864H75.288C75.7012 57.8864 75.817 57.9054 75.817 57.9727C75.817 58.0708 75.4683 60.7564 75.4156 61.064L75.3808 61.2666L75.736 61.2482L76.091 61.2294L76.3067 59.5732L76.5223 57.917L77.0213 57.8995L77.5202 57.8816L77.5579 57.6924C77.5788 57.5883 77.596 57.4375 77.596 57.3574V57.2117H76.2159H74.8355V57.3574ZM34.8399 58.6992C34.3276 58.9583 34.05 59.6907 34.172 60.4619C34.294 61.233 35.0315 61.6168 35.7178 61.2669C35.8431 61.2029 35.9457 61.1753 35.9457 61.2056C35.9457 61.2357 36.0912 61.2604 36.2694 61.2604H36.5931L36.7362 60.1102C36.815 59.4774 36.8936 58.8839 36.9108 58.7914C36.9424 58.6236 36.9406 58.6227 36.5972 58.6227C36.2649 58.6227 36.2524 58.6284 36.2524 58.7854C36.2524 58.9354 36.2438 58.941 36.145 58.8542C35.7824 58.5361 35.2802 58.4766 34.8399 58.6992ZM39.9474 58.6432C38.8252 59.0502 38.6711 60.7933 39.7157 61.2675C40.2884 61.5278 41.423 61.2157 41.4016 60.804C41.3954 60.6838 41.0285 60.4375 40.9464 60.4982C40.6106 60.7472 40.4993 60.7974 40.2839 60.7974C40.0019 60.7974 39.6874 60.5074 39.6874 60.2471V60.0947H40.6772H41.667L41.6349 59.6943C41.564 58.811 40.7986 58.3344 39.9474 58.6432ZM50.5218 58.6513C49.4529 59.0324 49.2708 60.7772 50.2505 61.2514C50.7863 61.5109 51.5774 61.3731 51.8987 60.9643L52.0266 60.8019L51.8368 60.6323C51.6541 60.4693 51.4649 60.4083 51.4649 60.5127C51.4649 60.5818 51.0115 60.8308 50.886 60.8308C50.6108 60.8308 50.371 60.5984 50.2684 60.2328L50.2297 60.0947H51.2153H52.2009V59.7363C52.2009 58.8304 51.4254 58.3294 50.5218 58.6513ZM53.7804 58.6804C53.5912 58.7845 53.5504 58.7905 53.5504 58.7146C53.5504 58.6453 53.476 58.6227 53.2476 58.6227H52.9444L52.9057 58.8833C52.8846 59.0267 52.8052 59.6202 52.729 60.2021L52.591 61.2604H52.9173C53.0967 61.2604 53.2437 61.2473 53.2437 61.2318C53.2437 60.0162 53.7619 58.9267 54.2225 59.1731C54.287 59.2076 54.3531 59.2359 54.3694 59.2359C54.4209 59.2359 54.6125 58.6828 54.5744 58.6447C54.4691 58.5391 53.9984 58.5602 53.7804 58.6804ZM55.3908 58.6298C54.5241 58.9746 54.2927 60.6793 55.0385 61.2232C55.3167 61.4258 55.9147 61.4341 56.2 61.2392C56.3377 61.1452 56.4133 61.119 56.3927 61.1726C56.366 61.2422 56.4299 61.2604 56.7027 61.2604C56.9369 61.2604 57.047 61.2357 57.0473 61.1836C57.0473 61.1414 57.1163 60.5963 57.2002 59.9722C57.3995 58.4918 57.4141 58.6227 57.0481 58.6227C56.7715 58.6227 56.7387 58.6373 56.703 58.7795L56.6638 58.9366L56.5332 58.8143C56.2752 58.5727 55.7484 58.4876 55.3908 58.6298ZM58.9322 58.684C58.7418 58.786 58.7032 58.7911 58.7032 58.7146C58.7032 58.4963 58.0995 58.5971 58.0608 58.822C58.021 59.055 57.5988 62.3004 57.5988 62.3751C57.5988 62.4596 58.2132 62.4346 58.2405 62.3489C58.2539 62.307 58.2977 61.9883 58.3378 61.6409C58.4104 61.0122 58.4113 61.0099 58.5416 61.1048C59.1988 61.5837 60.0119 61.3823 60.3471 60.6576C60.9374 59.3816 60.0196 58.1012 58.9322 58.684ZM68.7016 58.7274C67.7178 59.2421 67.6556 60.8355 68.6025 61.2654C69.9684 61.886 71.3404 60.3518 70.5431 59.0948C70.2082 58.5662 69.34 58.393 68.7016 58.7274ZM72.2746 58.6795C72.1137 58.7807 72.0753 58.7872 72.0753 58.7137C72.0753 58.6453 71.9994 58.6227 71.7712 58.6227C71.4166 58.6227 71.4708 58.4716 71.2774 60.0028C71.209 60.5425 71.1393 61.0462 71.1224 61.1223C71.0932 61.252 71.1111 61.2604 71.4238 61.2604H71.7561L71.8275 60.7234C72.0104 59.3474 72.2672 58.9517 72.8172 59.1981C72.9172 59.2427 73.1769 58.7224 73.0951 58.6406C72.9898 58.5352 72.4647 58.5602 72.2746 58.6795ZM77.7251 58.723C76.7104 59.2284 76.6586 60.8382 77.643 61.2737C78.3374 61.5811 79.2141 61.3011 79.5765 60.657C80.2988 59.3727 79.0464 58.0643 77.7251 58.723ZM84.0661 58.6468C83.2301 59.0109 83.0213 60.6802 83.7445 61.2193C83.9995 61.4091 84.576 61.4338 84.8935 61.2684C85.0294 61.1976 85.141 61.1666 85.141 61.2C85.141 61.2493 85.7535 61.2943 85.7547 61.2449C85.7547 61.2366 85.8238 60.7189 85.9076 60.0947C86.1183 58.5287 86.1281 58.6227 85.7541 58.6227C85.4885 58.6227 85.4474 58.6391 85.4474 58.7453C85.4474 58.8988 85.4516 58.8991 85.1044 58.7146C84.7804 58.5424 84.3678 58.5153 84.0661 58.6468ZM60.8493 58.6962C60.849 58.7399 61.0046 59.2385 61.1953 59.8041L61.5416 60.8323L61.267 61.2764C61.1159 61.5204 60.8904 61.8789 60.7657 62.0728L60.5393 62.4257L60.894 62.4248L61.2486 62.4242L62.3684 60.6201C63.7369 58.4145 63.6542 58.6114 63.2044 58.6346L62.8438 58.6533L62.3895 59.4414L61.9355 60.2298L61.8245 59.8094C61.7636 59.5783 61.6627 59.2237 61.6005 59.0214L61.4872 58.6533L61.1685 58.6346C60.9386 58.6212 60.8499 58.6385 60.8493 58.6962ZM86.3676 58.6569C86.3676 58.676 86.5327 59.174 86.7344 59.7636L87.1012 60.8358L86.6086 61.6153L86.1159 62.395L86.4345 62.4138C86.8305 62.4373 86.663 62.6431 87.9937 60.4985C89.3176 58.3645 89.2105 58.6227 88.772 58.6227H88.4162L87.9554 59.4152L87.4948 60.2078L87.4187 59.9213C87.3767 59.7636 87.2717 59.4069 87.1851 59.1288L87.028 58.6227H86.6978C86.5163 58.6227 86.3676 58.6382 86.3676 58.6569ZM81.8881 59.2043C82.1529 59.3679 82.2011 60.0754 81.9738 60.4598C81.6554 60.9989 80.9492 60.8831 80.8144 60.2703C80.6425 59.4866 81.2958 58.8381 81.8881 59.2043ZM35.8264 59.1764C36.2983 59.4289 36.1816 60.4919 35.6548 60.7418C35.1097 61.0003 34.6546 60.4285 34.8417 59.7211C34.9779 59.207 35.4233 58.9607 35.8264 59.1764ZM40.7962 59.2927C41.0794 59.5756 41.0393 59.6042 40.3547 59.6042H39.7338L39.8231 59.4661C40.0518 59.1124 40.5308 59.027 40.7962 59.2927ZM51.4188 59.3022C51.6336 59.5649 51.572 59.6042 50.9434 59.6042C50.3517 59.6042 50.3008 59.5839 50.4373 59.4036C50.667 59.1011 51.2085 59.0452 51.4188 59.3022ZM56.3767 59.2927C56.7286 59.6446 56.5784 60.4877 56.1214 60.7249C55.5243 61.0348 55.0385 60.2718 55.3536 59.5182C55.5359 59.0814 56.0518 58.9678 56.3767 59.2927ZM59.6174 59.2597C59.8515 59.4453 59.9354 60.0001 59.784 60.3625C59.5135 61.0096 58.6642 60.956 58.5505 60.2845C58.4211 59.5182 59.1089 58.8574 59.6174 59.2597ZM69.7179 59.2031C70.4444 59.5066 70.0555 60.832 69.2404 60.8305C68.4749 60.8293 68.3648 59.5676 69.1003 59.229C69.3992 59.0913 69.4457 59.0895 69.7179 59.2031ZM78.8631 59.2674C79.2885 59.5461 79.1332 60.4857 78.6215 60.7284C77.9102 61.0658 77.3548 60.3866 77.7216 59.6286C77.9533 59.1499 78.446 58.994 78.8631 59.2674ZM85.0702 59.2567C85.4578 59.6693 85.3085 60.5318 84.814 60.7382C84.2107 60.9905 83.7793 60.3194 84.0646 59.572C84.2437 59.1029 84.7706 58.9378 85.0702 59.2567Z" fill="#343434"/>
</svg>
