<svg width="46" height="46" viewBox="0 0 46 46" fill="none" xmlns="http://www.w3.org/2000/svg">
<path d="M39.7598 24.4394L27.1035 37.0957C26.8347 37.3556 26.4755 37.5009 26.1016 37.5009C25.7277 37.5009 25.3684 37.3556 25.0996 37.0957C24.8355 36.8291 24.6874 36.469 24.6874 36.0937C24.6874 35.7185 24.8355 35.3584 25.0996 35.0918L35.3652 24.8437H7.82031C7.44735 24.8437 7.08967 24.6956 6.82594 24.4318C6.56222 24.1681 6.41406 23.8104 6.41406 23.4375C6.41406 23.0645 6.56222 22.7068 6.82594 22.4431C7.08967 22.1794 7.44735 22.0312 7.82031 22.0312H35.3652L25.0996 11.7832C24.8754 11.51 24.7608 11.1631 24.7781 10.81C24.7954 10.457 24.9435 10.123 25.1934 9.87309C25.4434 9.62315 25.7773 9.47511 26.1304 9.45777C26.4834 9.44043 26.8303 9.55503 27.1035 9.77927L39.7598 22.4355C40.0238 22.7021 40.172 23.0622 40.172 23.4375C40.172 23.8127 40.0238 24.1728 39.7598 24.4394Z" fill="white"/>
</svg>
